# xmcd
#
# Track frame offsets: 
#        150
#        13970
#        27432
#        42632
#        56857
#        70170
#        82775
#        96705
#        110305
#        124577
#        136977
#        149942
#        163325
#        176665
#        189475
#        204637
#        218497
#        233805
#        247755
#        262550
#        277065
#        291280
#
# Disc length: 4076 seconds
#
# Revision: 2
# Processed by: cddbd v1.5.2PL0 Copyright (c) Steve Scherf et al.
# Submitted via: ExactAudioCopyFreeDBPlugin 1.0
#
DISCID=520fea16
DTITLE=Bessie Smith - The Complete Recordings [Frog Records]
DYEAR=2003
DGENRE=Blues
TTITLE0=Sweet Mistreater
TTITLE1=Lock and Key
TTITLE2=Mean Old Bed Bug Blues
TTITLE3=A Good Man is Hard to Find
TTITLE4=Homeless Blues
TTITLE5=Looking for My Man Blues
TTITLE6=Dyin' By the Hour
TTITLE7=Foolish Man Blues
TTITLE8=Thinking Blues
TTITLE9=Pickpocket Blues
TTITLE10=I Used to Be Your Sweet Mama
TTITLE11=I'd Rather Be Dead and Buried in My Grave
TTITLE12=Standin' in the Rain
TTITLE13=It Won't Be You
TTITLE14=Spider Man Blues
TTITLE15=Empty Bed Blues, Part 1
TTITLE16=Empty Bed Blues, Part 2
TTITLE17=Put it Right Here (Or Keep it Out There)
TTITLE18=Yes Indeed He Do
TTITLE19=Devil's Gonna Git You
TTITLE20=You Ought to Be Ashamed
TTITLE21=Washwoman's Blues
EXTD=
EXTT0=
EXTT1=
EXTT2=
EXTT3=
EXTT4=
EXTT5=
EXTT6=
EXTT7=
EXTT8=
EXTT9=
EXTT10=
EXTT11=
EXTT12=
EXTT13=
EXTT14=
EXTT15=
EXTT16=
EXTT17=
EXTT18=
EXTT19=
EXTT20=
EXTT21=
PLAYORDER=
